<svg width="288" height="311" viewBox="0 0 288 311" fill="none" xmlns="http://www.w3.org/2000/svg">
<g filter="url(#filter0_dd)">
<path d="M84.7688 234.384C84.7688 244.539 76.5357 252.769 66.3844 252.769C56.2331 252.769 48 244.539 48 234.384C48 224.23 56.2331 216 66.3844 216C76.5357 216 84.7688 224.23 84.7688 234.384Z" fill="url(#paint0_radial)"/>
</g>
<g filter="url(#filter1_dd)">
<path d="M85.2813 39.6411C85.2813 56.5627 71.5642 70.2813 54.6409 70.2813C37.7161 70.2813 24 56.5627 24 39.6411C24 22.7187 37.7166 9 54.6409 9C71.5647 9 85.2813 22.7192 85.2813 39.6411Z" fill="url(#paint1_radial)"/>
</g>
<g filter="url(#filter2_dd)">
<path d="M309.571 116.761C309.571 137.069 293.111 153.529 272.802 153.529C252.494 153.529 236.033 137.069 236.033 116.761C236.033 96.4543 252.493 79.9916 272.802 79.9916C293.111 79.9916 309.571 96.4543 309.571 116.761Z" fill="url(#paint2_radial)"/>
</g>
<path fill-rule="evenodd" clip-rule="evenodd" d="M44.8356 151.078C50.2508 151.078 54.6406 146.688 54.6406 141.273C54.6406 135.858 50.2508 131.468 44.8356 131.468C39.4205 131.468 35.0306 135.858 35.0306 141.273C35.0306 146.688 39.4205 151.078 44.8356 151.078Z" fill="url(#paint3_linear)"/>
<path fill-rule="evenodd" clip-rule="evenodd" d="M224.192 252.384C229.269 252.384 233.384 248.269 233.384 243.192C233.384 238.115 229.269 234 224.192 234C219.115 234 215 238.115 215 243.192C215 248.269 219.115 252.384 224.192 252.384Z" fill="url(#paint4_linear)"/>
<g filter="url(#filter3_dd)">
<path d="M145.95 202.554C179.795 202.554 207.231 175.118 207.231 141.273C207.231 107.428 179.795 79.9916 145.95 79.9916C112.105 79.9916 84.6685 107.428 84.6685 141.273C84.6685 175.118 112.105 202.554 145.95 202.554Z" fill="url(#paint5_radial)"/>
</g>
<path fill-rule="evenodd" clip-rule="evenodd" d="M195.256 45.5125C202.025 45.5125 207.513 40.0252 207.513 33.2563C207.513 26.4873 202.025 21 195.256 21C188.487 21 183 26.4873 183 33.2563C183 40.0252 188.487 45.5125 195.256 45.5125Z" fill="url(#paint6_linear)"/>
<defs>
<filter id="filter0_dd" x="13" y="183" width="116.769" height="116.769" filterUnits="userSpaceOnUse" color-interpolation-filters="sRGB">
<feFlood flood-opacity="0" result="BackgroundImageFix"/>
<feColorMatrix in="SourceAlpha" type="matrix" values="0 0 0 0 0 0 0 0 0 0 0 0 0 0 0 0 0 0 127 0" result="hardAlpha"/>
<feOffset dx="5" dy="7"/>
<feGaussianBlur stdDeviation="20"/>
<feColorMatrix type="matrix" values="0 0 0 0 0.248667 0 0 0 0 1 0 0 0 0 0.233333 0 0 0 0.3 0"/>
<feBlend mode="normal" in2="BackgroundImageFix" result="effect1_dropShadow"/>
<feColorMatrix in="SourceAlpha" type="matrix" values="0 0 0 0 0 0 0 0 0 0 0 0 0 0 0 0 0 0 127 0" result="hardAlpha"/>
<feOffset dx="1" dy="3"/>
<feGaussianBlur stdDeviation="2.5"/>
<feColorMatrix type="matrix" values="0 0 0 0 0 0 0 0 0 0 0 0 0 0 0 0 0 0 0.25 0"/>
<feBlend mode="normal" in2="effect1_dropShadow" result="effect2_dropShadow"/>
<feBlend mode="normal" in="SourceGraphic" in2="effect2_dropShadow" result="shape"/>
</filter>
<filter id="filter1_dd" x="0" y="0" width="129.281" height="148.281" filterUnits="userSpaceOnUse" color-interpolation-filters="sRGB">
<feFlood flood-opacity="0" result="BackgroundImageFix"/>
<feColorMatrix in="SourceAlpha" type="matrix" values="0 0 0 0 0 0 0 0 0 0 0 0 0 0 0 0 0 0 127 0" result="hardAlpha"/>
<feOffset dx="10" dy="44"/>
<feGaussianBlur stdDeviation="17"/>
<feColorMatrix type="matrix" values="0 0 0 0 1 0 0 0 0 0 0 0 0 0 0.396226 0 0 0 0.11 0"/>
<feBlend mode="normal" in2="BackgroundImageFix" result="effect1_dropShadow"/>
<feColorMatrix in="SourceAlpha" type="matrix" values="0 0 0 0 0 0 0 0 0 0 0 0 0 0 0 0 0 0 127 0" result="hardAlpha"/>
<feOffset dx="5" dy="5"/>
<feGaussianBlur stdDeviation="7"/>
<feColorMatrix type="matrix" values="0 0 0 0 1 0 0 0 0 1 0 0 0 0 1 0 0 0 0.05 0"/>
<feBlend mode="normal" in2="effect1_dropShadow" result="effect2_dropShadow"/>
<feBlend mode="normal" in="SourceGraphic" in2="effect2_dropShadow" result="shape"/>
</filter>
<filter id="filter2_dd" x="156.033" y="29.9916" width="261.538" height="261.538" filterUnits="userSpaceOnUse" color-interpolation-filters="sRGB">
<feFlood flood-opacity="0" result="BackgroundImageFix"/>
<feColorMatrix in="SourceAlpha" type="matrix" values="0 0 0 0 0 0 0 0 0 0 0 0 0 0 0 0 0 0 127 0" result="hardAlpha"/>
<feOffset dx="14" dy="44"/>
<feGaussianBlur stdDeviation="47"/>
<feColorMatrix type="matrix" values="0 0 0 0 0.625 0 0 0 0 0.45 0 0 0 0 0 0 0 0 0.3 0"/>
<feBlend mode="normal" in2="BackgroundImageFix" result="effect1_dropShadow"/>
<feColorMatrix in="SourceAlpha" type="matrix" values="0 0 0 0 0 0 0 0 0 0 0 0 0 0 0 0 0 0 127 0" result="hardAlpha"/>
<feOffset dx="3" dy="13"/>
<feGaussianBlur stdDeviation="16"/>
<feColorMatrix type="matrix" values="0 0 0 0 0 0 0 0 0 0 0 0 0 0 0 0 0 0 0.24 0"/>
<feBlend mode="normal" in2="effect1_dropShadow" result="effect2_dropShadow"/>
<feBlend mode="normal" in="SourceGraphic" in2="effect2_dropShadow" result="shape"/>
</filter>
<filter id="filter3_dd" x="25.6685" y="20.9916" width="255.563" height="289.563" filterUnits="userSpaceOnUse" color-interpolation-filters="sRGB">
<feFlood flood-opacity="0" result="BackgroundImageFix"/>
<feColorMatrix in="SourceAlpha" type="matrix" values="0 0 0 0 0 0 0 0 0 0 0 0 0 0 0 0 0 0 127 0" result="hardAlpha"/>
<feOffset dx="20" dy="54"/>
<feGaussianBlur stdDeviation="27"/>
<feColorMatrix type="matrix" values="0 0 0 0 0.231875 0 0 0 0 0.883333 0 0 0 0 0.844246 0 0 0 0.15 0"/>
<feBlend mode="normal" in2="BackgroundImageFix" result="effect1_dropShadow"/>
<feColorMatrix in="SourceAlpha" type="matrix" values="0 0 0 0 0 0 0 0 0 0 0 0 0 0 0 0 0 0 127 0" result="hardAlpha"/>
<feOffset dx="5" dy="5"/>
<feGaussianBlur stdDeviation="32"/>
<feColorMatrix type="matrix" values="0 0 0 0 0 0 0 0 0 0 0 0 0 0 0 0 0 0 0.25 0"/>
<feBlend mode="normal" in2="effect1_dropShadow" result="effect2_dropShadow"/>
<feBlend mode="normal" in="SourceGraphic" in2="effect2_dropShadow" result="shape"/>
</filter>
<radialGradient id="paint0_radial" cx="0" cy="0" r="1" gradientUnits="userSpaceOnUse" gradientTransform="translate(60.0951 228.196) rotate(48.3665) scale(26.0675)">
<stop stop-color="#38F3BB"/>
<stop offset="0.546875" stop-color="#20E0BD"/>
<stop offset="0.796875" stop-color="#4BC9DA"/>
<stop offset="1" stop-color="#84BCFF"/>
</radialGradient>
<radialGradient id="paint1_radial" cx="0" cy="0" r="1" gradientUnits="userSpaceOnUse" gradientTransform="translate(46.2942 25.0639) rotate(59.9818) scale(46.8784 46.8785)">
<stop stop-color="#FFB199"/>
<stop offset="0.539272" stop-color="#FF7E7E"/>
<stop offset="0.880208" stop-color="#FF65B8"/>
<stop offset="1" stop-color="#FF5C5C"/>
</radialGradient>
<radialGradient id="paint2_radial" cx="0" cy="0" r="1" gradientUnits="userSpaceOnUse" gradientTransform="translate(257.691 96.1927) rotate(53.3752) scale(63.5026 58.9026)">
<stop stop-color="#FFC83C"/>
<stop offset="0.328125" stop-color="#FFAD12"/>
<stop offset="0.572917" stop-color="#FF971E"/>
<stop offset="0.776042" stop-color="#FE6D6D"/>
<stop offset="1" stop-color="#FF5C66"/>
</radialGradient>
<linearGradient id="paint3_linear" x1="44.8356" y1="131.468" x2="61.5618" y2="151.078" gradientUnits="userSpaceOnUse">
<stop stop-color="#2424FB"/>
<stop offset="1" stop-color="#A924FB"/>
</linearGradient>
<linearGradient id="paint4_linear" x1="224.192" y1="234" x2="233.613" y2="252.384" gradientUnits="userSpaceOnUse">
<stop stop-color="#27FCA2"/>
<stop offset="1" stop-color="#FBFF3C"/>
</linearGradient>
<radialGradient id="paint5_radial" cx="0" cy="0" r="1" gradientUnits="userSpaceOnUse" gradientTransform="translate(118.373 105.653) rotate(51.2098) scale(105.157 97.1118)">
<stop stop-color="#4DEFFF"/>
<stop offset="0.557292" stop-color="#25D2FF"/>
<stop offset="0.796875" stop-color="#15B9FF"/>
<stop offset="1" stop-color="#B87DCD"/>
</radialGradient>
<linearGradient id="paint6_linear" x1="195.256" y1="21" x2="207.703" y2="45.5125" gradientUnits="userSpaceOnUse">
<stop stop-color="#FF70A6"/>
<stop offset="1" stop-color="#7939FF"/>
</linearGradient>
</defs>
</svg>
