<svg width="931" height="934" viewBox="0 0 931 934" fill="none" xmlns="http://www.w3.org/2000/svg">
<g filter="url(#filter0_dd)">
<path d="M224.168 824.584C224.168 858.6 196.589 886.168 162.584 886.168C128.579 886.168 101 858.6 101 824.584C101 790.57 128.579 763 162.584 763C196.589 763 224.168 790.57 224.168 824.584Z" fill="url(#paint0_radial)"/>
</g>
<g filter="url(#filter1_dd)">
<path d="M229.429 112.065C229.429 168.749 183.479 214.704 126.79 214.704C70.0953 214.704 24.1489 168.749 24.1489 112.065C24.1489 55.3783 70.0969 9.42346 126.79 9.42346C183.481 9.42346 229.429 55.3799 229.429 112.065Z" fill="url(#paint1_radial)"/>
</g>
<g filter="url(#filter2_dd)">
<path d="M980.754 370.401C980.754 438.427 925.617 493.567 857.586 493.567C789.556 493.567 734.417 438.427 734.417 370.401C734.417 302.378 789.554 247.231 857.586 247.231C925.617 247.231 980.754 302.378 980.754 370.401Z" fill="url(#paint2_radial)"/>
</g>
<path fill-rule="evenodd" clip-rule="evenodd" d="M93.9449 485.356C112.085 485.356 126.79 470.651 126.79 452.511C126.79 434.372 112.085 419.667 93.9449 419.667C75.8052 419.667 61.1001 434.372 61.1001 452.511C61.1001 470.651 75.8052 485.356 93.9449 485.356Z" fill="url(#paint3_linear)"/>
<path fill-rule="evenodd" clip-rule="evenodd" d="M760.792 886.584C777.798 886.584 791.584 872.798 791.584 855.792C791.584 838.786 777.798 825 760.792 825C743.786 825 730 838.786 730 855.792C730 872.798 743.786 886.584 760.792 886.584Z" fill="url(#paint4_linear)"/>
<g filter="url(#filter3_dd)">
<path d="M432.656 657.792C546.029 657.792 637.936 565.885 637.936 452.511C637.936 339.138 546.029 247.231 432.656 247.231C319.283 247.231 227.376 339.138 227.376 452.511C227.376 565.885 319.283 657.792 432.656 657.792Z" fill="url(#paint5_radial)"/>
</g>
<path fill-rule="evenodd" clip-rule="evenodd" d="M597.823 131.733C620.498 131.733 638.879 113.352 638.879 90.6771C638.879 68.0024 620.498 49.621 597.823 49.621C575.148 49.621 556.767 68.0024 556.767 90.6771C556.767 113.352 575.148 131.733 597.823 131.733Z" fill="url(#paint6_linear)"/>
<defs>
<filter id="filter0_dd" x="66" y="730" width="203.168" height="203.168" filterUnits="userSpaceOnUse" color-interpolation-filters="sRGB">
<feFlood flood-opacity="0" result="BackgroundImageFix"/>
<feColorMatrix in="SourceAlpha" type="matrix" values="0 0 0 0 0 0 0 0 0 0 0 0 0 0 0 0 0 0 127 0" result="hardAlpha"/>
<feOffset dx="5" dy="7"/>
<feGaussianBlur stdDeviation="20"/>
<feColorMatrix type="matrix" values="0 0 0 0 0.248667 0 0 0 0 1 0 0 0 0 0.233333 0 0 0 0.3 0"/>
<feBlend mode="normal" in2="BackgroundImageFix" result="effect1_dropShadow"/>
<feColorMatrix in="SourceAlpha" type="matrix" values="0 0 0 0 0 0 0 0 0 0 0 0 0 0 0 0 0 0 127 0" result="hardAlpha"/>
<feOffset dx="1" dy="3"/>
<feGaussianBlur stdDeviation="2.5"/>
<feColorMatrix type="matrix" values="0 0 0 0 0 0 0 0 0 0 0 0 0 0 0 0 0 0 0.25 0"/>
<feBlend mode="normal" in2="effect1_dropShadow" result="effect2_dropShadow"/>
<feBlend mode="normal" in="SourceGraphic" in2="effect2_dropShadow" result="shape"/>
</filter>
<filter id="filter1_dd" x="0.148926" y="0.423462" width="273.28" height="292.28" filterUnits="userSpaceOnUse" color-interpolation-filters="sRGB">
<feFlood flood-opacity="0" result="BackgroundImageFix"/>
<feColorMatrix in="SourceAlpha" type="matrix" values="0 0 0 0 0 0 0 0 0 0 0 0 0 0 0 0 0 0 127 0" result="hardAlpha"/>
<feOffset dx="10" dy="44"/>
<feGaussianBlur stdDeviation="17"/>
<feColorMatrix type="matrix" values="0 0 0 0 1 0 0 0 0 0 0 0 0 0 0.396226 0 0 0 0.11 0"/>
<feBlend mode="normal" in2="BackgroundImageFix" result="effect1_dropShadow"/>
<feColorMatrix in="SourceAlpha" type="matrix" values="0 0 0 0 0 0 0 0 0 0 0 0 0 0 0 0 0 0 127 0" result="hardAlpha"/>
<feOffset dx="5" dy="5"/>
<feGaussianBlur stdDeviation="7"/>
<feColorMatrix type="matrix" values="0 0 0 0 1 0 0 0 0 1 0 0 0 0 1 0 0 0 0.05 0"/>
<feBlend mode="normal" in2="effect1_dropShadow" result="effect2_dropShadow"/>
<feBlend mode="normal" in="SourceGraphic" in2="effect2_dropShadow" result="shape"/>
</filter>
<filter id="filter2_dd" x="654.417" y="197.231" width="434.336" height="434.336" filterUnits="userSpaceOnUse" color-interpolation-filters="sRGB">
<feFlood flood-opacity="0" result="BackgroundImageFix"/>
<feColorMatrix in="SourceAlpha" type="matrix" values="0 0 0 0 0 0 0 0 0 0 0 0 0 0 0 0 0 0 127 0" result="hardAlpha"/>
<feOffset dx="14" dy="44"/>
<feGaussianBlur stdDeviation="47"/>
<feColorMatrix type="matrix" values="0 0 0 0 0.625 0 0 0 0 0.45 0 0 0 0 0 0 0 0 0.3 0"/>
<feBlend mode="normal" in2="BackgroundImageFix" result="effect1_dropShadow"/>
<feColorMatrix in="SourceAlpha" type="matrix" values="0 0 0 0 0 0 0 0 0 0 0 0 0 0 0 0 0 0 127 0" result="hardAlpha"/>
<feOffset dx="3" dy="13"/>
<feGaussianBlur stdDeviation="16"/>
<feColorMatrix type="matrix" values="0 0 0 0 0 0 0 0 0 0 0 0 0 0 0 0 0 0 0.24 0"/>
<feBlend mode="normal" in2="effect1_dropShadow" result="effect2_dropShadow"/>
<feBlend mode="normal" in="SourceGraphic" in2="effect2_dropShadow" result="shape"/>
</filter>
<filter id="filter3_dd" x="168.376" y="188.231" width="543.56" height="577.56" filterUnits="userSpaceOnUse" color-interpolation-filters="sRGB">
<feFlood flood-opacity="0" result="BackgroundImageFix"/>
<feColorMatrix in="SourceAlpha" type="matrix" values="0 0 0 0 0 0 0 0 0 0 0 0 0 0 0 0 0 0 127 0" result="hardAlpha"/>
<feOffset dx="20" dy="54"/>
<feGaussianBlur stdDeviation="27"/>
<feColorMatrix type="matrix" values="0 0 0 0 0.231875 0 0 0 0 0.883333 0 0 0 0 0.844246 0 0 0 0.15 0"/>
<feBlend mode="normal" in2="BackgroundImageFix" result="effect1_dropShadow"/>
<feColorMatrix in="SourceAlpha" type="matrix" values="0 0 0 0 0 0 0 0 0 0 0 0 0 0 0 0 0 0 127 0" result="hardAlpha"/>
<feOffset dx="5" dy="5"/>
<feGaussianBlur stdDeviation="32"/>
<feColorMatrix type="matrix" values="0 0 0 0 0 0 0 0 0 0 0 0 0 0 0 0 0 0 0.25 0"/>
<feBlend mode="normal" in2="effect1_dropShadow" result="effect2_dropShadow"/>
<feBlend mode="normal" in="SourceGraphic" in2="effect2_dropShadow" result="shape"/>
</filter>
<radialGradient id="paint0_radial" cx="0" cy="0" r="1" gradientUnits="userSpaceOnUse" gradientTransform="translate(141.516 803.853) rotate(48.3665) scale(87.3209)">
<stop stop-color="#38F3BB"/>
<stop offset="0.546875" stop-color="#20E0BD"/>
<stop offset="0.796875" stop-color="#4BC9DA"/>
<stop offset="1" stop-color="#84BCFF"/>
</radialGradient>
<radialGradient id="paint1_radial" cx="0" cy="0" r="1" gradientUnits="userSpaceOnUse" gradientTransform="translate(98.8299 63.2343) rotate(59.9818) scale(157.033 157.034)">
<stop stop-color="#FFB199"/>
<stop offset="0.539272" stop-color="#FF7E7E"/>
<stop offset="0.880208" stop-color="#FF65B8"/>
<stop offset="1" stop-color="#FF5C5C"/>
</radialGradient>
<radialGradient id="paint2_radial" cx="0" cy="0" r="1" gradientUnits="userSpaceOnUse" gradientTransform="translate(806.967 301.502) rotate(53.3752) scale(212.721 197.312)">
<stop stop-color="#FFC83C"/>
<stop offset="0.328125" stop-color="#FFAD12"/>
<stop offset="0.572917" stop-color="#FF971E"/>
<stop offset="0.776042" stop-color="#FE6D6D"/>
<stop offset="1" stop-color="#FF5C66"/>
</radialGradient>
<linearGradient id="paint3_linear" x1="93.9449" y1="419.667" x2="149.974" y2="485.356" gradientUnits="userSpaceOnUse">
<stop stop-color="#2424FB"/>
<stop offset="1" stop-color="#A924FB"/>
</linearGradient>
<linearGradient id="paint4_linear" x1="760.792" y1="825" x2="792.35" y2="886.584" gradientUnits="userSpaceOnUse">
<stop stop-color="#27FCA2"/>
<stop offset="1" stop-color="#FBFF3C"/>
</linearGradient>
<radialGradient id="paint5_radial" cx="0" cy="0" r="1" gradientUnits="userSpaceOnUse" gradientTransform="translate(340.28 333.192) rotate(51.2098) scale(352.253 325.305)">
<stop stop-color="#4DEFFF"/>
<stop offset="0.557292" stop-color="#25D2FF"/>
<stop offset="0.796875" stop-color="#15B9FF"/>
<stop offset="1" stop-color="#B87DCD"/>
</radialGradient>
<linearGradient id="paint6_linear" x1="597.823" y1="49.621" x2="639.517" y2="131.733" gradientUnits="userSpaceOnUse">
<stop stop-color="#FF70A6"/>
<stop offset="1" stop-color="#7939FF"/>
</linearGradient>
</defs>
</svg>
